# xmcd
#
# Track frame offsets:
#	150
#	7963
#	18754
#	28325
#	39623
#	58617
#	80792
#	93842
#	105189
#	113779
#	122858
#	134688
#	145339
#	168611
#	178280
#	189636
#	199006
#	209657
#	220981
#	233630
#	255310
#	265581
#	277224
#	290939
#	303135
#	321300
#
# Disc length: 4626 seconds
#
# Revision: 0
# Processed by: cddbd v1.5.2PL0 Copyright (c) Steve Scherf et al.
# Submitted via: EZCDAudioConverter 1.3.4.1
#
DISCID=8a12101a
DTITLE=Graham Bond Organisation - Wade In The Water 1/4
DYEAR=1900
DGENRE=
TTITLE0=Roll 'Em Pete
TTITLE1=Cabbage Greens [Version 1]
TTITLE2=Baby What You Want Me To Do
TTITLE3=I Saw Her Standing There [Version 1 - Alternate Take]
TTITLE4=Shake, Rattle And Roll
TTITLE5=What'd I Say [Version 1]
TTITLE6=I Got A Woman
TTITLE7=I Saw Her Standing There [Version 2 - Master Take]
TTITLE8=Farewell Baby [Version 1 - Alternate Take]
TTITLE9=Farewell Baby [Version 2 - Master Take]
TTITLE10=Slippin' and Slidin'
TTITLE11=Spanish (aka Spanish Blues) [Version1]
TTITLE12=Untitled Abbey Road Blues Instrumental
TTITLE13=It's Happening
TTITLE14=Wade In The Water [Version 1]
TTITLE15=Swing-A-Ling (Part 1)
TTITLE16=Swing-A-Ling (Part 2)
TTITLE17=Just A Little Walk (Part 1)
TTITLE18=Just A Little Walk (Part 2)
TTITLE19=So-Ho
TTITLE20=Say When (Part 1)
TTITLE21=Say When (Part 2)
TTITLE22=Cabbage Greens [Version 2]
TTITLE23=Long Legged Baby [Version 1]
TTITLE24=Hoochie Coochie Man [Version 1]
TTITLE25=Wade In The Water [Version 2]
EXTD=
EXTT0=
EXTT1=
EXTT2=
EXTT3=
EXTT4=
EXTT5=
EXTT6=
EXTT7=
EXTT8=
EXTT9=
EXTT10=
EXTT11=
EXTT12=
EXTT13=
EXTT14=
EXTT15=
EXTT16=
EXTT17=
EXTT18=
EXTT19=
EXTT20=
EXTT21=
EXTT22=
EXTT23=
EXTT24=
EXTT25=
PLAYORDER=
